<?xml version="1.0" encoding="UTF-8" standalone="yes"?>
<svg version="1.2" viewBox="0 0 226.772 226.772" xml:space="preserve" baseProfile="tiny-ps" xmlns="http://www.w3.org/2000/svg">
  <title>bimi-svg-tiny-12-ps</title>
  <path d="M183.992,227.131H-0.26V0.36h226.772v184.252C209.976,201.148,200.528,210.595,183.992,227.131z" fill="#100E0D"/>
  <g>
    <g>
      <path d="M19.747,80.477c0-12.805,8.792-20.464,20.251-20.464c6.081,0,10.208,2.455,12.876,4.94&#xD;&#xA;&#x9;&#x9;&#x9;l-3.815,4.182c-2.168-1.955-4.758-3.484-8.846-3.484c-7.907,0-13.158,5.574-13.158,14.632c0,9.188,4.703,14.807,13.488,14.807&#xD;&#xA;&#x9;&#x9;&#x9;c2.573,0,5.097-0.68,6.551-1.874v-8.917H38.72v-5.322h14.764v17.115c-2.849,2.64-7.766,4.635-13.644,4.635&#xD;&#xA;&#x9;&#x9;&#x9;C28.276,100.726,19.747,93.412,19.747,80.477z" fill="#20A750"/>
      <path d="M63.232,60.732h14.27c8.918,0,15.675,2.88,15.675,11.5c0,8.293-6.757,12.11-15.675,12.11h-7.166&#xD;&#xA;&#x9;&#x9;&#x9;v15.663h-7.104V60.732z M76.712,79.151c6.107,0,9.443-2.294,9.443-6.918c0-4.679-3.336-6.309-9.443-6.309h-6.375v13.227H76.712z&#xD;&#xA;&#x9;&#x9;&#x9; M76.154,82.605l5.227-3.762l13.383,21.163h-8L76.154,82.605z" fill="#20A750"/>
      <path d="M101.822,60.732h25.669v5.452h-18.564v10.626h15.711v5.452h-15.711v12.291h19.223v5.452h-26.328&#xD;&#xA;&#x9;&#x9;&#x9;V60.732z" fill="#20A750"/>
      <path d="M137.053,60.732h25.669v5.452h-18.564v10.626h15.711v5.452h-15.711v12.291h19.223v5.452h-26.328&#xD;&#xA;&#x9;&#x9;&#x9;V60.732z" fill="#20A750"/>
      <path d="M172.284,60.732h7.308l13.947,22.73l4.505,8.32h0.264c-0.346-4.035-0.906-8.87-0.906-13.175V60.732&#xD;&#xA;&#x9;&#x9;&#x9;h6.758v39.273h-7.308l-13.947-22.763l-4.505-8.288h-0.264c0.346,4.11,0.906,8.706,0.906,13.011v18.04h-6.758V60.732z" fill="#20A750"/>
      <path d="M17.749,120.732h7.308l3.939,20.227c0.732,4.19,1.5,8.379,2.233,12.569h0.264&#xD;&#xA;&#x9;&#x9;&#x9;c0.911-4.19,1.882-8.412,2.854-12.569l5.471-20.227h6.226l5.471,20.227c0.971,4.092,1.942,8.347,2.914,12.569h0.264&#xD;&#xA;&#x9;&#x9;&#x9;c0.732-4.222,1.44-8.444,2.173-12.569l3.939-20.227h6.819l-8.44,39.273h-8.747l-5.646-21.415c-0.719-3.055-1.366-6.02-1.942-9.01&#xD;&#xA;&#x9;&#x9;&#x9;h-0.263c-0.612,2.99-1.284,5.955-2.003,9.01l-5.514,21.415h-8.604L17.749,120.732z" fill="#FFFFFF"/>
      <path d="M74.559,120.732h7.104v15.949h18.085v-15.949h7.104v39.273h-7.104v-17.678H81.663v17.678h-7.104&#xD;&#xA;&#x9;&#x9;&#x9;V120.732z" fill="#FFFFFF"/>
      <path d="M118.021,120.732h7.104v39.273h-7.104V120.732z" fill="#FFFFFF"/>
      <path d="M145.098,126.185h-12.594v-5.452h32.293v5.452h-12.594v33.821h-7.104V126.185z" fill="#FFFFFF"/>
      <path d="M172.152,120.732h25.669v5.452h-18.564v10.626h15.711v5.452h-15.711v12.291h19.223v5.452h-26.328&#xD;&#xA;&#x9;&#x9;&#x9;V120.732z" fill="#FFFFFF"/>
    </g>
  </g>
</svg>